Coordinates
version=1
nRows=7
nColumns=63
inDegrees=yes

Units are S.I. units (second, meters, Newtons, ...)
If the header above contains a line with 'inDegrees', this indicates whether rotational values are in degrees (yes) or radians (no).

endheader
time	pelvis_tilt	pelvis_list	pelvis_rotation	pelvis_tx	pelvis_ty	pelvis_tz	hip_flexion_r	hip_adduction_r	hip_rotation_r	knee_angle_r	knee_angle_r_beta	ankle_angle_r	subtalar_angle_r	mtp_angle_r	hip_flexion_l	hip_adduction_l	hip_rotation_l	knee_angle_l	knee_angle_l_beta	ankle_angle_l	subtalar_angle_l	mtp_angle_l	L5_S1_Flex_Ext	L5_S1_Lat_Bending	L5_S1_axial_rotation	L4_L5_Flex_Ext	L4_L5_Lat_Bending	L4_L5_axial_rotation	L3_L4_Flex_Ext	L3_L4_Lat_Bending	L3_L4_axial_rotation	L2_L3_Flex_Ext	L2_L3_Lat_Bending	L2_L3_axial_rotation	L1_L2_Flex_Ext	L1_L2_Lat_Bending	L1_L2_axial_rotation	L1_T12_Flex_Ext	L1_T12_Lat_Bending	L1_T12_axial_rotation	Abs_r3	Abs_r2	Abs_r1	Abs_t1	Abs_t2	neck_flexion	neck_bending	neck_rotation	arm_flex_r	arm_add_r	arm_rot_r	elbow_flex_r	pro_sup_r	wrist_flex_r	wrist_dev_r	arm_flex_l	arm_add_l	arm_rot_l	elbow_flex_l	pro_sup_l	wrist_flex_l	wrist_dev_l
      1.13333333	     -2.86159023	     -4.36812803	     93.65634200	      0.16869482	      0.98780075	      0.47786993	      7.74690049	     -4.65076569	    -10.53500955	     12.50158390	      0.21819380	     29.55661704	      0.99371781	      0.00000000	      6.68463163	      2.57410075	      4.43903224	      3.55702960	      0.06208188	     28.68272765	      7.58962151	      0.00000000	      0.04438406	     -0.20621665	     -1.43789768	      0.08242564	     -0.27426815	     -1.52776628	      0.07291857	     -0.50139517	     -1.52776628	      0.05072654	     -0.50139517	     -1.25816047	      0.04121504	     -0.42051700	     -1.16829186	      0.02536105	     -0.31942959	     -1.07842326	      0.31703091	     -2.33276402	     -7.99715550	      0.00000000	      0.00000000	     17.30850921	     -0.46869259	    -13.97917721	      4.96369121	    -12.63719217	     21.13218303	    115.63714005	     74.41121518	     25.72940864	     21.44937924	     -2.75569022	    -22.42262585	     17.80090154	    123.14123182	     83.17681582	      0.35777133	      9.85155953
      1.15000000	     -2.98702912	     -4.44440323	     92.90973683	      0.16923051	      0.98781068	      0.47668844	      7.94871338	     -4.80075108	    -10.38569441	     12.57525894	      0.21947967	     29.96246367	      1.68186303	      0.00000000	      6.47225793	      2.68402517	      5.31345736	      3.08773434	      0.05389113	     28.93361673	      6.54880346	      0.00000000	      0.04662918	     -0.20052557	     -1.37346958	      0.08659506	     -0.26669900	     -1.45931143	      0.07660709	     -0.48755786	     -1.45931143	      0.05329249	     -0.48755786	     -1.20178588	      0.04329986	     -0.40891173	     -1.11594403	      0.02664392	     -0.31061410	     -1.03010218	      0.33306760	     -2.26838530	     -7.63882575	      0.00000000	      0.00000000	     17.75243836	     -0.75090918	    -14.62417707	      1.04283033	    -13.02522383	     19.05821815	    118.89065017	     82.17241868	     18.08315685	     16.42606180	     -0.04964535	    -22.41577393	     20.50636442	    122.65181115	     80.06738481	      0.51474909	     10.45991900
      1.16666667	     -3.01914007	     -4.51798287	     92.38766542	      0.16946836	      0.98767396	      0.47559768	      8.05698451	     -4.83709699	    -10.23248554	     12.59383601	      0.21980390	     30.19835991	      1.82169897	      0.00000000	      6.32742832	      2.70954585	      5.91618875	      2.73984861	      0.04781938	     29.25923615	      6.02152723	      0.00000000	      0.04888657	     -0.18785816	     -1.26886636	      0.09078725	     -0.24985135	     -1.34817051	      0.08031575	     -0.45675833	     -1.34817051	      0.05587246	     -0.45675833	     -1.11025807	      0.04539607	     -0.38308036	     -1.03095392	      0.02793379	     -0.29099229	     -0.95164977	      0.34919189	     -2.12508907	     -7.05705404	      0.00000000	      0.00000000	     18.16773800	     -0.80289609	    -15.58438346	     -3.16143384	    -13.08564132	     16.71576294	    121.90701739	     86.75765064	     11.71805848	     13.69537270	      3.50452859	    -22.50307847	     24.07234382	    121.78314594	     77.05143956	      1.87601625	     11.66188315
      1.18333333	     -2.99843115	     -4.52292803	     91.81047119	      0.16977926	      0.98745263	      0.47460230	      8.08978552	     -4.80097195	    -10.00155387	     12.65620900	      0.22089252	     30.31643976	      1.89242667	      0.00000000	      6.11970783	      2.66474031	      6.30729949	      2.46002182	      0.04293548	     29.58195966	      5.44166543	      0.00000000	      0.04447297	     -0.16964819	     -1.15882599	      0.08259075	     -0.22563209	     -1.23125261	      0.07306464	     -0.41248260	     -1.23125261	      0.05082816	     -0.41248260	     -1.01397274	      0.04129760	     -0.34594658	     -0.94154612	      0.02541185	     -0.26278504	     -0.86911949	      0.31766596	     -1.91909422	     -6.44504251	      0.00000000	      0.00000000	     18.55050538	     -0.57533968	    -16.26488718	     -6.89376861	    -13.27090498	     14.97481662	    124.15703162	     88.19596348	      5.89428056	     10.70379748	      7.36822858	    -22.49967901	     27.92320501	    120.75943004	     73.67387240	      3.48376086	     13.44282088
      1.20000000	     -3.09404858	     -4.58750771	     91.15025963	      0.17026716	      0.98687876	      0.47362361	      8.21910295	     -4.86668886	     -9.67661946	     12.81916297	      0.22373660	     30.44458054	      1.79685300	      0.00000000	      5.94573573	      2.74227472	      6.47350317	      2.21854952	      0.03872099	     29.61251362	      4.43556625	      0.00000000	      0.04964771	     -0.16230115	     -1.05898208	      0.09220077	     -0.21586053	     -1.12516846	      0.08156623	     -0.39461902	     -1.12516846	      0.05674237	     -0.39461902	     -0.92660932	      0.04610287	     -0.33096451	     -0.86042294	      0.02836870	     -0.25140448	     -0.79423656	      0.35462865	     -1.83598308	     -5.88974066	      0.00000000	      0.00000000	     19.06233932	     -0.86630425	    -16.85550520	    -10.10353071	    -13.27490464	     13.54391934	    125.95024227	     88.63703770	      0.72830392	      7.90506502	     11.01475125	    -22.18555650	     31.59948688	    119.83926829	     68.35415011	      4.22000436	     16.07771227
      1.21666667	     -3.15333154	     -4.59567363	     90.57431660	      0.17080456	      0.98626601	      0.47263068	      8.23815873	     -4.84872874	     -9.01823528	     12.89998018	      0.22514713	     30.34581549	      1.40803121	      0.00000000	      5.71824117	      2.76787257	      6.81660011	      2.06932173	      0.03611648	     29.48151006	      3.15764043	      0.00000000	      0.04634402	     -0.15265038	     -0.97073050	      0.08606548	     -0.20302501	     -1.03140116	      0.07613859	     -0.37115414	     -1.03140116	      0.05296658	     -0.37115414	     -0.84938919	      0.04303506	     -0.31128466	     -0.78871853	      0.02648097	     -0.23645544	     -0.72804788	      0.33103070	     -1.72681164	     -5.39891183	      0.00000000	      0.00000000	     19.62588186	     -1.04376615	    -17.16146528	    -12.67536368	    -13.25239699	     11.77757601	    127.47476057	     88.67080477	     -2.62692873	      6.11741535	     14.34489064	    -21.46442817	     35.14176802	    119.04483846	     61.94610658	      2.22964201	     18.81962365
      1.23333333	     -3.22279444	     -4.64069076	     89.96974652	      0.17154628	      0.98557017	      0.47176184	      8.31035622	     -4.80151815	     -8.15798649	     12.92515434	      0.22558650	     30.15360878	      0.94797745	      0.00000000	      5.55609321	      2.78995878	      6.64433368	      1.99492610	      0.03481803	     29.21999315	      2.11023980	      0.00000000	      0.04476141	     -0.14876914	     -0.84126861	      0.08312641	     -0.19786295	     -0.89384790	      0.07353851	     -0.36171728	     -0.89384790	      0.05115781	     -0.36171728	     -0.73611004	      0.04156544	     -0.30337002	     -0.68353075	      0.02557667	     -0.23044339	     -0.63095146	      0.31972624	     -1.68290624	     -4.67888365	      0.00000000	      0.00000000	     20.27246907	     -1.63907533	    -17.91659260	    -14.83946299	    -13.11235773	      9.48727056	    128.91111351	     88.41289489	     -5.50750636	      5.28234670	     17.15742151	    -20.23707244	     38.36289208	    118.36387584	     56.61813169	     -2.44261139	     20.62589287
